HIERARCHY
ROOT Hips
{
	OFFSET 53.810501 -50.995316 85.924889
	CHANNELS 6 Xposition Yposition Zposition Xrotation Yrotation Zrotation
	JOINT spine
	{
		OFFSET 0.000000 -0.367607 6.392601
		CHANNELS 3 Xrotation Yrotation Zrotation
		JOINT spine1
		{
			OFFSET 0.000000 0.000000 9.176109
			CHANNELS 3 Xrotation Yrotation Zrotation
			JOINT spine2
			{
				OFFSET 0.000000 -0.000004 8.792381
				CHANNELS 3 Xrotation Yrotation Zrotation
				JOINT Neck
				{
					OFFSET 0.000000 -1.076244 22.573685
					CHANNELS 3 Xrotation Yrotation Zrotation
					JOINT Head
					{
						OFFSET 0.000000 0.000000 6.820114
						CHANNELS 3 Xrotation Yrotation Zrotation
						End Site
						{
							OFFSET 0.000000 5.444267 16.508499
						}
					}
				}
				JOINT RightShoulder
				{
					OFFSET -3.702209 0.515507 9.495087
					CHANNELS 3 Xrotation Yrotation Zrotation
					JOINT RightArm
					{
						OFFSET 0.000000 -0.000004 12.453690
						CHANNELS 3 Xrotation Yrotation Zrotation
						JOINT RightArmRoll
						{
							OFFSET 0.000000 0.000000 6.286865
							CHANNELS 3 Xrotation Yrotation Zrotation
							JOINT RightForeArm
							{
								OFFSET 0.000000 -0.000004 18.311401
								CHANNELS 3 Xrotation Yrotation Zrotation
								JOINT RightForeArmRoll
								{
									OFFSET 0.000000 0.000000 7.054825
									CHANNELS 3 Xrotation Yrotation Zrotation
									JOINT RightHand
									{
										OFFSET 0.000000 -0.000004 14.157501
										CHANNELS 3 Xrotation Yrotation Zrotation
										End Site
										{
											OFFSET 0.000000 0.000000 0.100006
										}
									}
								}
							}
						}
					}
				}
				JOINT LeftShoulder
				{
					OFFSET 3.702209 0.515507 9.495087
					CHANNELS 3 Xrotation Yrotation Zrotation
					JOINT LeftArm
					{
						OFFSET 0.000000 -0.000004 12.453690
						CHANNELS 3 Xrotation Yrotation Zrotation
						JOINT LeftArmRoll
						{
							OFFSET 0.000000 0.000000 6.286865
							CHANNELS 3 Xrotation Yrotation Zrotation
							JOINT LeftForeArm
							{
								OFFSET 0.000000 -0.000004 18.311401
								CHANNELS 3 Xrotation Yrotation Zrotation
								JOINT LeftForeArmRoll
								{
									OFFSET 0.000000 0.000000 7.054825
									CHANNELS 3 Xrotation Yrotation Zrotation
									JOINT LeftHand
									{
										OFFSET 0.000000 -0.000004 14.157501
										CHANNELS 3 Xrotation Yrotation Zrotation
										End Site
										{
											OFFSET 0.000000 0.000000 0.100006
										}
									}
								}
							}
						}
					}
				}
			}
		}
	}
	JOINT RightUpLeg
	{
		OFFSET -5.666161 0.871609 -1.039032
		CHANNELS 3 Xrotation Yrotation Zrotation
		JOINT RightUpLegRoll
		{
			OFFSET 0.000000 0.000000 16.600502
			CHANNELS 3 Xrotation Yrotation Zrotation
			JOINT RightLeg
			{
				OFFSET 0.000000 0.000004 -20.557198
				CHANNELS 3 Xrotation Yrotation Zrotation
				JOINT RightLegRoll
				{
					OFFSET 0.000000 -0.000004 20.624397
					CHANNELS 3 Xrotation Yrotation Zrotation
					JOINT RightFoot
					{
						OFFSET 0.000000 -0.000004 17.166405
						CHANNELS 3 Xrotation Yrotation Zrotation
						JOINT RightToeBase
						{
							OFFSET 0.000000 -0.000004 14.350197
							CHANNELS 3 Xrotation Yrotation Zrotation
							End Site
							{
								OFFSET 0.006081 0.801060 6.949707
							}
						}
					}
				}
			}
		}
	}
	JOINT LeftUpLeg
	{
		OFFSET 5.666161 0.871609 -1.039032
		CHANNELS 3 Xrotation Yrotation Zrotation
		JOINT LeftUpLegRoll
		{
			OFFSET 0.000000 0.000000 16.600601
			CHANNELS 3 Xrotation Yrotation Zrotation
			JOINT LeftLeg
			{
				OFFSET 0.000000 -0.000004 20.557098
				CHANNELS 3 Xrotation Yrotation Zrotation
				JOINT LeftLegRoll
				{
					OFFSET 0.000000 -0.000004 20.815086
					CHANNELS 3 Xrotation Yrotation Zrotation
					JOINT LeftFoot
					{
						OFFSET 0.000000 -0.000004 16.975693
						CHANNELS 3 Xrotation Yrotation Zrotation
						JOINT LeftToeBase
						{
							OFFSET 0.000000 0.000000 14.350204
							CHANNELS 3 Xrotation Yrotation Zrotation
							End Site
							{
								OFFSET -0.027260 0.801056 6.949707
							}
						}
					}
				}
			}
		}
	}
}
MOTION
Frames: 6
Frame Time: 0.041667
52.179604 -34.553917 78.372704 18.233374 -1.000121 4.881388 -0.823628 0.581221 -0.187873 2.357533 1.174366 -0.373074 4.002743 1.169810 -0.387117 -6.428054 -5.022758 -1.173984 3.297426 1.593828 -0.010691 2.959951 -58.680047 3.525426 126.281851 -51.208107 115.910482 -0.000001 -0.000002 -0.000002 19.630403 -17.949018 3.243522 0.000006 0.000006 -2.999999 -4.999654 -7.998718 -0.000019 4.415592 50.790103 -6.487676 132.682189 49.942111 -118.049616 -0.000001 -0.000005 0.000007 26.470016 15.251748 -2.676952 0.000017 -0.000014 2.999999 -4.999609 7.998738 0.000050 -52.192272 -174.961088 -1.388581 179.999991 0.000005 -0.707002 135.330636 -3.097268 -2.850326 -0.000004 -0.000005 0.703494 75.083470 6.852487 1.766325 25.457215 -7.346716 0.000048 -51.371191 178.913568 4.450014 -0.000004 0.000011 -0.787775 -45.264777 0.097182 1.014234 -0.000004 0.000001 -1.152440 76.393132 -6.643412 -2.316358 25.565548 7.355618 -0.158707 
52.184402 -34.638313 78.442200 18.137260 -1.017123 4.892487 -0.839525 0.580643 -0.185522 2.325698 1.173603 -0.368210 3.970917 1.169107 -0.382245 -6.328065 -4.946847 -1.176526 3.317978 1.556169 -0.034890 2.959819 -58.698857 3.522500 126.246348 -51.266362 115.996693 -0.000000 -0.000002 -0.000003 19.397531 -17.963592 3.207351 0.000006 0.000006 -3.000001 -4.999652 -7.998718 -0.000020 4.435091 50.887624 -6.495308 132.652888 50.039889 -118.117371 -0.000001 -0.000004 0.000007 26.383482 15.245718 -2.666350 0.000015 -0.000012 3.000004 -4.999612 7.998740 0.000047 -51.919174 -174.945351 -1.387487 179.999991 0.000005 -0.707999 135.501446 -3.098499 -2.839398 -0.000004 -0.000005 0.700327 75.087657 6.850530 1.773013 25.457215 -7.346716 0.000048 -51.093053 178.927092 4.453977 -0.000001 0.000011 -0.788647 -45.079682 0.098561 1.011235 -0.000004 0.000001 -1.147380 76.381568 -6.643262 -2.317020 25.568682 7.355620 -0.163237 
52.190403 -34.731617 78.513893 18.043857 -1.036644 4.903001 -0.856246 0.580188 -0.183384 2.292230 1.173061 -0.363766 3.937451 1.168616 -0.377795 -6.222524 -4.861519 -1.176272 3.336591 1.511735 -0.058089 2.969359 -58.717859 3.530873 126.209520 -51.333926 116.082330 -0.000001 -0.000002 -0.000003 19.180378 -17.975101 3.172928 0.000006 0.000005 -2.999998 -4.999651 -7.998721 -0.000022 4.453118 50.995005 -6.499439 132.620158 50.146330 -118.182108 -0.000002 -0.000005 0.000005 26.302638 15.241478 -2.656679 0.000017 -0.000013 3.000000 -4.999612 7.998737 0.000048 -51.649477 -174.927128 -1.387605 179.999991 0.000005 -0.707999 135.672514 -3.098945 -2.829750 -0.000004 -0.000005 0.697128 75.091141 6.848457 1.780027 25.457215 -7.346716 0.000048 -50.816563 178.942815 4.457757 -0.000003 0.000011 -0.789533 -44.893184 0.100933 1.008507 -0.000004 0.000001 -1.142200 76.369206 -6.643078 -2.317626 25.571810 7.355630 -0.167903 
52.193405 -34.822609 78.578392 17.952666 -1.058242 4.913004 -0.873635 0.579846 -0.181421 2.257432 1.172710 -0.359668 3.902651 1.168315 -0.373691 -6.112276 -4.768524 -1.173785 3.353514 1.461813 -0.080397 2.986632 -58.737168 3.548274 126.171762 -51.409847 116.167120 -0.000000 -0.000001 -0.000003 18.978148 -17.983886 3.140218 0.000006 0.000004 -2.999996 -4.999652 -7.998718 -0.000021 4.469511 51.110654 -6.500178 132.585214 50.259824 -118.244467 -0.000002 -0.000006 0.000007 26.226857 15.239103 -2.647931 0.000017 -0.000015 3.000001 -4.999611 7.998741 0.000052 -51.382424 -174.906924 -1.388537 179.999991 0.000005 -0.708996 135.843788 -3.099332 -2.819144 -0.000003 -0.000005 0.693904 75.093627 6.846366 1.787601 25.457210 -7.346717 0.000048 -50.541467 178.960136 4.461644 -0.000004 0.000011 -0.790430 -44.705391 0.104149 1.006006 -0.000004 0.000001 -1.136910 76.356160 -6.642834 -2.318265 25.575145 7.355623 -0.172703 
52.207405 -34.916504 78.637802 17.863190 -1.081477 4.922546 -0.891547 0.579598 -0.179597 2.221582 1.172518 -0.355837 3.866804 1.168175 -0.369859 -5.998141 -4.669619 -1.169611 3.368996 1.407664 -0.101929 3.009665 -58.756641 3.572401 126.132571 -51.493841 116.249096 0.000000 -0.000001 -0.000005 18.790378 -17.990507 3.109373 0.000005 0.000004 -3.000001 -4.999651 -7.998717 -0.000018 4.484035 51.232580 -6.497549 132.547484 50.380121 -118.302947 -0.000002 -0.000004 0.000005 26.155817 15.238478 -2.640088 0.000017 -0.000011 3.000002 -4.999610 7.998736 0.000048 -51.117382 -174.885915 -1.389035 179.999991 0.000005 -0.708996 136.015390 -3.098932 -2.808825 -0.000004 -0.000005 0.690657 75.095396 6.844186 1.795408 25.457215 -7.346716 0.000048 -50.267645 178.978427 4.465897 -0.000006 0.000011 -0.791334 -44.516499 0.108065 1.003689 -0.000004 0.000001 -1.131520 76.342240 -6.642669 -2.318665 25.578476 7.355622 -0.177585 
52.214703 -35.004608 78.707909 17.775120 -1.105914 4.931704 -0.909830 0.579431 -0.177870 2.184997 1.172457 -0.352196 3.830211 1.168155 -0.366218 -5.880955 -4.566582 -1.164279 3.383277 1.350543 -0.122793 3.036472 -58.776230 3.600921 126.093133 -51.584215 116.329091 0.000001 -0.000001 -0.000003 18.616367 -17.995267 3.080384 0.000006 0.000006 -3.000000 -4.999652 -7.998715 -0.000017 4.496542 51.359191 -6.491653 132.509358 50.505048 -118.359733 -0.000002 -0.000005 0.000005 26.088872 15.239590 -2.633086 0.000017 -0.000014 3.000001 -4.999610 7.998743 0.000050 -50.854119 -174.863375 -1.390274 179.999991 0.000005 -0.708996 136.187401 -3.098470 -2.798528 -0.000004 -0.000005 0.687393 75.096400 6.842013 1.803461 25.457215 -7.346715 0.000048 -49.994727 178.998289 4.469253 -0.000001 0.000010 -0.792241 -44.326606 0.112533 1.001517 -0.000003 0.000000 -1.126060 76.327753 -6.642448 -2.319190 25.581816 7.355629 -0.182530 
